<svg width="628" height="549" viewBox="0 0 628 549" fill="none" xmlns="http://www.w3.org/2000/svg">
<circle cx="353.5" cy="274.5" r="274.5" fill="#5F8566"/>
<g clip-path="url(#clip0_5_65)">
<path d="M239.346 481.63C241.412 481.759 242.553 479.193 240.99 477.697L240.835 477.078C240.855 477.029 240.876 476.979 240.897 476.93C242.986 471.948 250.067 471.983 252.138 476.972C253.977 481.4 256.318 485.836 256.894 490.518C257.152 492.585 257.036 494.69 256.577 496.718C260.885 487.308 263.153 477.032 263.153 466.697C263.153 464.101 263.01 461.504 262.72 458.914C262.481 456.796 262.151 454.69 261.725 452.604C259.419 441.327 254.427 430.586 247.225 421.615C243.763 419.722 240.876 416.764 239.132 413.218C238.506 411.939 238.015 410.563 237.782 409.162C238.176 409.214 239.268 403.213 238.971 402.845C239.52 402.012 240.502 401.598 241.102 400.785C244.084 396.741 248.193 397.447 250.338 402.942C254.92 405.255 254.965 409.09 252.153 412.779C250.364 415.126 250.119 418.301 248.549 420.814C248.711 421.02 248.878 421.221 249.04 421.427C252.001 425.225 254.562 429.307 256.721 433.596C256.111 428.83 257.012 423.088 258.547 419.386C260.296 415.169 263.572 411.617 266.458 407.971C269.924 403.592 277.031 405.503 277.642 411.055C277.648 411.108 277.654 411.162 277.659 411.216C277.231 411.458 276.811 411.714 276.401 411.986C274.061 413.533 274.87 417.16 277.642 417.587L277.704 417.597C277.549 419.141 277.285 420.671 276.897 422.176C280.599 436.492 272.607 441.706 261.196 441.941C260.944 442.07 260.698 442.199 260.446 442.322C261.602 445.577 262.526 448.916 263.211 452.301C263.824 455.291 264.251 458.314 264.49 461.349C264.787 465.179 264.761 469.029 264.438 472.853L264.457 472.717C265.277 468.506 267.564 464.572 270.884 461.847C275.829 457.784 282.817 456.288 288.152 453.023C290.72 451.451 294.012 453.482 293.563 456.46L293.541 456.602C292.747 456.925 291.972 457.3 291.223 457.72C290.794 457.961 290.374 458.218 289.964 458.489C287.625 460.037 288.433 463.663 291.205 464.091L291.268 464.101C291.313 464.107 291.352 464.114 291.397 464.12C290.034 467.356 288.135 470.36 285.759 472.95C283.444 485.447 273.503 486.632 262.868 482.993H262.862C261.699 488.057 260.001 493.004 257.817 497.719H239.797C239.733 497.519 239.675 497.312 239.616 497.112C241.283 497.216 242.962 497.119 244.603 496.815C243.266 495.175 241.929 493.521 240.592 491.881C240.559 491.848 240.534 491.816 240.508 491.784C239.83 490.944 239.145 490.111 238.467 489.271L238.466 489.27C238.424 486.693 238.733 484.123 239.346 481.63Z" fill="#F2F2F2"/>
<path d="M0 498.075C0 498.735 0.53003 499.265 1.19006 499.265H404.48C405.14 499.265 405.67 498.735 405.67 498.075C405.67 497.415 405.14 496.885 404.48 496.885H1.19006C0.53003 496.885 0 497.415 0 498.075Z" fill="#CCCCCC"/>
<path d="M544.743 499H338.192C327.316 499 318.468 490.151 318.468 479.275V69.7246C318.468 58.8486 327.316 50 338.192 50H544.743C555.619 50 564.468 58.8486 564.468 69.7246V479.275C564.468 490.151 555.619 499 544.743 499ZM338.192 52C328.403 52 320.468 59.9354 320.468 69.7241V479.275C320.468 489.064 328.403 497 338.192 497H544.743C554.532 497 562.468 489.064 562.468 479.275V200.705C562.468 118.577 495.89 52 413.763 52H338.192Z" fill="#E6E6E6"/>
<path d="M377.134 252.118C390.389 252.118 401.134 241.373 401.134 228.118C401.134 214.863 390.389 204.118 377.134 204.118C363.879 204.118 353.134 214.863 353.134 228.118C353.134 241.373 363.879 252.118 377.134 252.118Z" fill="#E6E6E6"/>
<path d="M505.801 252.118C519.055 252.118 529.801 241.373 529.801 228.118C529.801 214.863 519.055 204.118 505.801 204.118C492.546 204.118 481.801 214.863 481.801 228.118C481.801 241.373 492.546 252.118 505.801 252.118Z" fill="#E6E6E6"/>
<path d="M441.467 252.118C454.722 252.118 465.467 241.373 465.467 228.118C465.467 214.863 454.722 204.118 441.467 204.118C428.212 204.118 417.467 214.863 417.467 228.118C417.467 241.373 428.212 252.118 441.467 252.118Z" fill="#E6E6E6"/>
<path d="M377.134 321.118C390.389 321.118 401.134 310.373 401.134 297.118C401.134 283.863 390.389 273.118 377.134 273.118C363.879 273.118 353.134 283.863 353.134 297.118C353.134 310.373 363.879 321.118 377.134 321.118Z" fill="#E6E6E6"/>
<path d="M505.801 321.118C519.056 321.118 529.801 310.373 529.801 297.118C529.801 283.863 519.056 273.118 505.801 273.118C492.546 273.118 481.801 283.863 481.801 297.118C481.801 310.373 492.546 321.118 505.801 321.118Z" fill="#E6E6E6"/>
<path d="M441.467 321.118C454.722 321.118 465.467 310.373 465.467 297.118C465.467 283.863 454.722 273.118 441.467 273.118C428.213 273.118 417.467 283.863 417.467 297.118C417.467 310.373 428.213 321.118 441.467 321.118Z" fill="#E6E6E6"/>
<path d="M377.134 390.118C390.389 390.118 401.134 379.373 401.134 366.118C401.134 352.863 390.389 342.118 377.134 342.118C363.879 342.118 353.134 352.863 353.134 366.118C353.134 379.373 363.879 390.118 377.134 390.118Z" fill="#E6E6E6"/>
<path d="M505.31 459C518.565 459 529.31 448.255 529.31 435C529.31 421.745 518.565 411 505.31 411C492.055 411 481.31 421.745 481.31 435C481.31 448.255 492.055 459 505.31 459Z" fill="#E6E6E6"/>
<path d="M409.81 459C441.014 459 466.31 448.255 466.31 435C466.31 421.745 441.014 411 409.81 411C378.606 411 353.31 421.745 353.31 435C353.31 448.255 378.606 459 409.81 459Z" fill="#E6E6E6"/>
<path d="M505.801 390.118C519.056 390.118 529.801 379.373 529.801 366.118C529.801 352.863 519.056 342.118 505.801 342.118C492.546 342.118 481.801 352.863 481.801 366.118C481.801 379.373 492.546 390.118 505.801 390.118Z" fill="#E6E6E6"/>
<path d="M441.467 390.118C454.722 390.118 465.467 379.373 465.467 366.118C465.467 352.863 454.722 342.118 441.467 342.118C428.213 342.118 417.467 352.863 417.467 366.118C417.467 379.373 428.213 390.118 441.467 390.118Z" fill="#C3593F"/>
<path d="M446.184 78H216.65C209.844 78 204.31 83.5343 204.31 90.3403V174.66C204.31 181.466 209.844 187 216.65 187H446.184C452.99 187 458.524 181.466 458.524 174.66V90.3403C458.524 83.5343 452.99 78 446.184 78Z" fill="white"/>
<path d="M446.184 78H216.65C209.844 78 204.31 83.5343 204.31 90.3403V174.66C204.31 181.466 209.844 187 216.65 187H446.184C452.99 187 458.524 181.466 458.524 174.66V90.3403C458.524 83.5343 452.99 78 446.184 78ZM457.227 174.66C457.227 180.752 452.276 185.702 446.184 185.702H216.65C210.558 185.702 205.608 180.752 205.608 174.66V90.3403C205.608 84.248 210.558 79.2976 216.65 79.2976H446.184C452.276 79.2976 457.227 84.248 457.227 90.3403V174.66Z" fill="#3F3D56"/>
<path d="M433.417 129H229.417C227.484 129 225.917 130.567 225.917 132.5C225.917 134.433 227.484 136 229.417 136H433.417C435.35 136 436.917 134.433 436.917 132.5C436.917 130.567 435.35 129 433.417 129Z" fill="#C3593F"/>
<path d="M67.9521 230.421L65.9077 242.596L84.0383 286.7L93.7659 281.699L84.2979 240.427L82.9371 224.676L67.9521 230.421Z" fill="#A0616A"/>
<path d="M87.9661 161.929C87.9661 161.929 78.4735 157.33 71.1075 172.867C63.7415 188.405 64.6537 222.482 64.6537 222.482C64.6537 222.482 61.9716 225.036 63.6742 226.824C65.3768 228.612 66.9641 231.45 65.2272 234.721C64.3118 236.445 62.1933 239.817 65.6626 240.775C69.132 241.734 85.3605 237.207 85.3605 237.207C85.3605 237.207 91.4289 234.489 87.9809 232.658C84.5329 230.827 89.389 219.753 89.389 219.753L93.4015 187.761L87.9661 161.929Z" fill="#C3593F"/>
<path d="M95.4195 303.55C99.2297 302.38 100.721 296.229 98.7504 289.812C96.7799 283.395 92.0936 279.142 88.2835 280.312C84.4733 281.482 82.982 287.632 84.9526 294.049C86.9231 300.467 91.6094 304.72 95.4195 303.55Z" fill="#A0616A"/>
<path d="M185.278 492.57L194.364 490.131L189.282 453.923L175.871 457.522L185.278 492.57Z" fill="#A0616A"/>
<path d="M216.354 484.01C216.765 484.411 217.327 485.909 217.475 486.463C217.932 488.166 216.922 489.917 215.219 490.374L187.079 497.925C185.917 498.237 184.722 497.548 184.411 496.386L184.096 495.214C184.096 495.214 181.759 492.067 183.461 486.958C183.461 486.958 187.935 489.4 191.829 482.649L192.636 479.385L206.227 484.645L212.733 483.731C214.156 483.531 215.325 483.007 216.354 484.01Z" fill="#2F2E41"/>
<path d="M96.2113 492.361L105.619 492.36L110.095 456.072L96.2094 456.073L96.2113 492.361Z" fill="#A0616A"/>
<path d="M128.444 492.148C128.737 492.641 128.891 494.233 128.891 494.807C128.891 496.57 127.462 498 125.698 498H96.5632C95.3601 498 94.3849 497.025 94.3849 495.822V494.609C94.3849 494.609 92.9436 490.963 95.911 486.47C95.911 486.47 99.599 489.988 105.11 484.477L106.735 481.533L118.499 490.136L125.019 490.939C126.445 491.115 127.71 490.912 128.444 492.148Z" fill="#2F2E41"/>
<path d="M158.823 276.205L183.561 382.837L195.504 468.996L176.737 471.555L124.7 324.829L112.758 471.555L91.4312 473.261C91.4312 473.261 74.37 299.238 82.0476 277.911L158.823 276.205Z" fill="#2F2E41"/>
<path d="M188.269 150.115L196.805 141.196L206.607 94.5289L195.751 93.1957L180.377 132.65L172.647 146.441L188.269 150.115Z" fill="#A0616A"/>
<path d="M133.21 195.505C133.21 195.505 141.198 210.235 156.025 201.527C170.852 192.819 186.533 158.535 186.533 158.535C186.533 158.535 189.664 149.82 192.94 148.091C194.666 147.18 199.108 146.198 196.778 143.455C194.447 140.712 177.688 134.715 177.688 134.715C177.688 134.715 171.141 133.552 172.963 137.004C174.785 140.457 168.801 138.318 169.405 141.972C170.009 145.626 164.543 146.885 164.543 146.885L133.21 195.505Z" fill="#C3593F"/>
<path d="M209.983 87.9369C211.961 81.5221 210.477 75.3697 206.668 74.1951C202.86 73.0206 198.168 77.2686 196.19 83.6834C194.212 90.0982 195.696 96.2506 199.505 97.4252C203.313 98.5997 208.005 94.3517 209.983 87.9369Z" fill="#A0616A"/>
<path d="M134.271 144.473H110.914L109.969 151.838C109.969 151.838 80.5127 159.938 81.2491 164.356C81.9855 168.775 86.404 242.416 86.404 242.416L82.7219 279.236C82.7219 279.236 148.999 307.22 159.308 274.081L154.154 235.788C154.154 235.788 166.673 170.248 163.727 167.302C160.781 164.356 136.48 152.574 136.48 152.574L134.271 144.473Z" fill="#C3593F"/>
<path d="M120.704 144.565C132.282 144.565 141.668 135.179 141.668 123.601C141.668 112.023 132.282 102.637 120.704 102.637C109.126 102.637 99.7397 112.023 99.7397 123.601C99.7397 135.179 109.126 144.565 120.704 144.565Z" fill="#A0616A"/>
<path d="M136.229 114.978C138.908 114.751 141.586 114.525 144.265 114.298C143.344 113.876 142.385 113.424 141.772 112.618C141.159 111.812 141.032 110.538 141.773 109.848C142.639 109.041 144.073 109.468 145.019 110.179C144.498 107.458 142.874 104.965 140.596 103.389C137.813 101.464 130.928 103.76 127.572 103.318C123.701 102.808 123.218 99.5071 119.347 98.9971C117.888 98.8049 116.245 98.6599 115.098 99.5817C113.825 100.604 113.683 102.537 112.56 103.722C110.957 105.413 108.209 104.914 105.928 105.39C102.697 106.065 100.261 108.898 99.1357 112.001C98.0106 115.105 97.9692 118.48 97.9405 121.781C97.9084 125.48 97.8968 129.763 100.572 132.318C102.202 133.874 106.643 139.215 107.122 141.417C107.463 142.981 121.356 144.886 124.367 144.799L134.63 141.417C135.639 136.976 133.97 128.19 131.572 124.318C132.362 125.361 136.014 128.501 136.572 127.318C137.131 126.134 136.877 122.426 137.572 121.318C138.45 119.919 134.584 115.117 136.229 114.978Z" fill="#2F2E41"/>
</g>
<defs>
<clipPath id="clip0_5_65">
<rect y="50" width="564.468" height="449.265" rx="100" fill="white"/>
</clipPath>
</defs>
</svg>
