<svg width="448" height="348" viewBox="0 0 448 348" fill="none" xmlns="http://www.w3.org/2000/svg">
<path d="M382.548 1.92462C352.746 7.54365 333.072 36.3609 338.691 66.1628C340.492 75.7184 344.688 84.2234 350.527 91.1972L301.531 162.963C292.911 160.064 283.461 159.254 273.906 161.055C264.35 162.857 255.844 167.053 248.871 172.892L216.51 150.798C219.409 142.178 220.22 132.728 218.418 123.172C212.799 93.3703 183.982 73.696 154.18 79.315C124.378 84.934 104.703 113.751 110.322 143.553C112.124 153.109 116.32 161.614 122.159 168.588L73.1622 240.352C64.5408 237.454 55.0911 236.643 45.5355 238.445C15.7336 244.064 -3.94079 272.881 1.67824 302.683C7.29728 332.485 36.1145 352.159 65.9164 346.54C95.7183 340.921 115.393 312.104 109.774 282.302C107.972 272.747 103.777 264.242 97.9375 257.269L146.934 185.504C155.555 188.403 165.004 189.213 174.56 187.412C184.116 185.61 192.62 181.414 199.594 175.575L231.955 197.669C229.056 206.289 228.246 215.739 230.048 225.295C235.667 255.097 264.484 274.771 294.286 269.152C324.088 263.533 343.762 234.716 338.143 204.914C336.341 195.358 332.146 186.852 326.307 179.879L375.302 108.115C383.924 111.013 393.372 111.824 402.928 110.022C432.73 104.403 452.404 75.5859 446.785 45.784C441.166 15.9821 412.35 -3.69441 382.548 1.92462ZM60.3578 317.059C46.8115 319.613 33.7127 310.67 31.1586 297.124C28.6045 283.577 37.5474 270.479 51.0937 267.925C64.64 265.371 77.7388 274.313 80.2929 287.86C82.847 301.406 73.9041 314.505 60.3578 317.059ZM169.002 157.93C155.456 160.484 142.357 151.541 139.803 137.995C137.249 124.448 146.192 111.35 159.738 108.796C173.284 106.241 186.383 115.184 188.937 128.731C191.491 142.277 182.549 155.376 169.002 157.93ZM288.728 239.669C275.182 242.223 262.083 233.28 259.529 219.734C256.975 206.188 265.918 193.089 279.464 190.535C293.01 187.981 306.109 196.924 308.663 210.47C311.217 224.016 302.274 237.115 288.728 239.669ZM397.37 80.5395C383.824 83.0936 370.725 74.1507 368.171 60.6044C365.617 47.058 374.56 33.9593 388.106 31.4052C401.653 28.8511 414.751 37.794 417.305 51.3403C419.86 64.8866 410.917 77.9853 397.37 80.5395Z" fill="#5F8566"/>
</svg>
