<svg width="39" height="39" viewBox="0 0 39 39" fill="none" xmlns="http://www.w3.org/2000/svg">
<path d="M25.8333 13.1666C28.3528 13.1666 30.7692 14.1675 32.5508 15.9491C34.3324 17.7307 35.3333 20.1471 35.3333 22.6666V33.75H29V22.6666C29 21.8268 28.6663 21.0213 28.0725 20.4275C27.4786 19.8336 26.6731 19.5 25.8333 19.5C24.9934 19.5 24.188 19.8336 23.5941 20.4275C23.0003 21.0213 22.6666 21.8268 22.6666 22.6666V33.75H16.3333V22.6666C16.3333 20.1471 17.3342 17.7307 19.1158 15.9491C20.8974 14.1675 23.3137 13.1666 25.8333 13.1666Z" stroke="#E6E6E6" stroke-width="4" stroke-linecap="round" stroke-linejoin="round"/>
<path d="M9.99996 14.75H3.66663V33.75H9.99996V14.75Z" stroke="#E6E6E6" stroke-width="4" stroke-linecap="round" stroke-linejoin="round"/>
<path d="M6.83329 9.99996C8.58219 9.99996 9.99996 8.58219 9.99996 6.83329C9.99996 5.08439 8.58219 3.66663 6.83329 3.66663C5.08439 3.66663 3.66663 5.08439 3.66663 6.83329C3.66663 8.58219 5.08439 9.99996 6.83329 9.99996Z" stroke="#E6E6E6" stroke-width="4" stroke-linecap="round" stroke-linejoin="round"/>
</svg>
