<svg width="39" height="39" viewBox="0 0 39 39" fill="none" xmlns="http://www.w3.org/2000/svg">
<path d="M28.2083 10.7916H28.2241M11.5833 3.66663H27.4166C31.7889 3.66663 35.3333 7.21104 35.3333 11.5833V27.4166C35.3333 31.7889 31.7889 35.3333 27.4166 35.3333H11.5833C7.21104 35.3333 3.66663 31.7889 3.66663 27.4166V11.5833C3.66663 7.21104 7.21104 3.66663 11.5833 3.66663ZM25.8333 18.5025C26.0287 19.8202 25.8036 21.166 25.1901 22.3484C24.5765 23.5308 23.6058 24.4897 22.4159 25.0886C21.226 25.6875 19.8775 25.896 18.5623 25.6844C17.2471 25.4727 16.0321 24.8518 15.0901 23.9098C14.1482 22.9678 13.5272 21.7528 13.3156 20.4376C13.1039 19.1224 13.3124 17.774 13.9113 16.5841C14.5102 15.3941 15.4691 14.4234 16.6515 13.8098C17.8339 13.1963 19.1797 12.9712 20.4975 13.1666C21.8416 13.3659 23.086 13.9923 24.0468 14.9531C25.0076 15.9139 25.634 17.1583 25.8333 18.5025Z" stroke="#E6E6E6" stroke-width="4" stroke-linecap="round" stroke-linejoin="round"/>
</svg>
